<svg id="Layer_1" data-name="Layer 1" xmlns="http://www.w3.org/2000/svg" xmlns:xlink="http://www.w3.org/1999/xlink" viewBox="0 0 100 100"><defs><style>.cls-1{fill:url(#Orange);}.cls-2{fill:#fff;}</style><linearGradient id="Orange" x1="-21.26" y1="-11.08" x2="137.13" y2="124.69" gradientUnits="userSpaceOnUse"><stop offset="0" stop-color="#f3944c"/><stop offset="0.5" stop-color="#ed6d05"/><stop offset="1" stop-color="#d25917"/></linearGradient></defs><rect class="cls-1" width="100" height="100" rx="15"/><path class="cls-2" d="M50.93,71.44V100H46.09V70.38H17.64V100H12.76V71.44c0-3.91,2.57-7.09,5.74-7.09H45.18C48.36,64.35,50.93,67.53,50.93,71.44Z"/><path class="cls-2" d="M42.77,51.27V65.46c0,1.38-2.93,2.53-4.51,2.74L38.31,52H25.37L25.32,68.2c-1.58-.2-4.41-1.35-4.41-2.74V51.27A3.07,3.07,0,0,1,24.2,48.5H39.48A3.06,3.06,0,0,1,42.77,51.27Z"/><rect class="cls-2" x="26.19" y="40.27" width="11.31" height="9.73"/><rect class="cls-2" x="29.87" y="22.95" width="3.94" height="19.46" rx="1.72"/><polygon class="cls-2" points="57.7 21.15 57.7 51.24 63.61 51.24 63.61 39.63 66.72 39.63 66.72 51.24 73.16 51.24 73.16 36.06 76.25 36.06 76.25 51.24 82.91 51.24 82.91 39.63 86.01 39.63 86.01 51.24 92.58 51.24 92.58 35.47 95.69 35.47 95.69 51.24 100 51.24 100 55.86 52.67 55.86 52.67 16.27 100 16.27 100 21.15 57.7 21.15"/></svg>