<svg id="Layer_1" data-name="Layer 1" xmlns="http://www.w3.org/2000/svg" xmlns:xlink="http://www.w3.org/1999/xlink" viewBox="0 0 100 100"><defs><style>.cls-1{fill:url(#Indigo);}.cls-2{fill:#fff;}</style><linearGradient id="Indigo" x1="-21.26" y1="-11.08" x2="137.13" y2="124.69" gradientUnits="userSpaceOnUse"><stop offset="0" stop-color="#5e4f9c"/><stop offset="0.5" stop-color="#312783"/><stop offset="1" stop-color="#463a6a"/></linearGradient></defs><rect class="cls-1" width="100" height="100" rx="15"/><path class="cls-2" d="M83.4,10.6H19.71c-3.57,0-6.46,2.59-6.46,5.78V66.17c0,3.18,2.89,5.77,6.46,5.77H42.18v5H60.93v-5H83.4c3.57,0,6.47-2.59,6.47-5.77V16.38C89.87,13.19,87,10.6,83.4,10.6ZM19.1,21.84a4.73,4.73,0,0,1,5-4.44H79a4.73,4.73,0,0,1,5,4.44v36.4H19.1Z"/><path class="cls-2" d="M30.85,79.67H72.27A3.29,3.29,0,0,1,75.56,83v2.71a0,0,0,0,1,0,0h-48a0,0,0,0,1,0,0V83A3.29,3.29,0,0,1,30.85,79.67Z"/><path class="cls-2" d="M50.5,48l11.24-6v6.5a15.78,15.78,0,0,1-22.48,0V42.41Z"/><polygon class="cls-2" points="26.81 33.99 50.34 22.43 74.19 33.18 50.5 44.91 26.81 33.99"/><path class="cls-2" d="M72,48.9l.75,4h-4l.61-4.09a2.57,2.57,0,0,1,.38-4.77V37.55l2-1v7.57A2.57,2.57,0,0,1,72,48.9Z"/></svg>