<svg id="Layer_1" data-name="Layer 1" xmlns="http://www.w3.org/2000/svg" xmlns:xlink="http://www.w3.org/1999/xlink" viewBox="0 0 100 100"><defs><style>.cls-1{fill:url(#Red);}.cls-2{fill:#fff;}</style><linearGradient id="Red" x1="-21.26" y1="-11.08" x2="137.13" y2="124.69" gradientUnits="userSpaceOnUse"><stop offset="0" stop-color="#ef7e7c"/><stop offset="0.5" stop-color="#e6304e"/><stop offset="1" stop-color="#d90d3a"/></linearGradient></defs><rect class="cls-1" width="100" height="100" rx="15"/><path class="cls-2" d="M23.45,79.17c-4.22,0-7.65-3.9-7.65-8.69V33.27c0-4.8,3.43-8.7,7.65-8.7H32a.06.06,0,0,0,.06-.05h0a6.68,6.68,0,0,1,6.69-6.69H61.3A6.68,6.68,0,0,1,68,24.52h0a.06.06,0,0,0,.06.05h8.5c4.22,0,7.65,3.9,7.65,8.7V70.48c0,4.79-3.43,8.69-7.65,8.69ZM25,30.32c-2.17,0-3.93,2-3.93,4.57v34c0,2.52,1.76,4.57,3.93,4.57H75c2.17,0,3.93-2,3.93-4.57v-34c0-2.52-1.76-4.57-3.93-4.57H63a.06.06,0,0,1-.05-.06V25a2.3,2.3,0,0,0-2.31-2.31H39.33A2.3,2.3,0,0,0,37,25v5.27a.06.06,0,0,1-.05.06Z"/><path class="cls-2" d="M50,70.74a19,19,0,1,1,19-19A19.06,19.06,0,0,1,50,70.74Zm0-32.92A13.89,13.89,0,1,0,63.88,51.71,13.9,13.9,0,0,0,50,37.82Z"/></svg>