<svg id="Layer_1" data-name="Layer 1" xmlns="http://www.w3.org/2000/svg" viewBox="0 0 42 32"><defs><style>.cls-1{fill:#fff;}</style></defs><path class="cls-1" d="M37.47,14.08l-3.84,3.84a.91.91,0,0,1-1.28,0l-2.19-2.18a.91.91,0,0,1,0-1.28l.55-.54a2.94,2.94,0,0,0,0-.44c-.08-.77-.8-1.13-1.48-1.29a4.88,4.88,0,0,0-2.34,0c-1.21.33-1.88,1.51-2.89,2.16-.33.21-.61,0-.85-.22-.43-.41-.83-.85-1.24-1.27a1.1,1.1,0,0,1-.44-.93c.08-.46.56-.78.86-1.09a4.17,4.17,0,0,0,1.16-2,5,5,0,0,0-2-4.7,6.41,6.41,0,0,0-3.3-1.28,24.24,24.24,0,0,0-2.55.09,2.35,2.35,0,0,1-.65,0c-.19,0-.25,0-.26-.09a.45.45,0,0,1,0-.18A1.89,1.89,0,0,1,15.12,2C16.33.35,19,.42,20.78.6a13.6,13.6,0,0,1,6.13,2.3A19.34,19.34,0,0,1,30,5.39a23.79,23.79,0,0,1,2.27,2.52c0,.68,0,1.35,0,2a1.89,1.89,0,0,0,.52.56,2,2,0,0,0,1,.34l.23-.23a.91.91,0,0,1,1.28,0l2.18,2.19A.91.91,0,0,1,37.47,14.08Z"/><path class="cls-1" d="M22.35,16.45,9.56,31.18a1.23,1.23,0,0,1-1.8.06L4.62,28.11a1.25,1.25,0,0,1,.07-1.81L19.42,13.53a1.23,1.23,0,0,1,1.68.06l1.19,1.19A1.22,1.22,0,0,1,22.35,16.45Z"/></svg>