<svg id="Layer_1" data-name="Layer 1" xmlns="http://www.w3.org/2000/svg" xmlns:xlink="http://www.w3.org/1999/xlink" viewBox="0 0 100 100"><defs><style>.cls-1{fill:url(#Magenta);}.cls-2{fill:#fff;}</style><linearGradient id="Magenta" x1="-21.61" y1="-10.6" x2="136.79" y2="125.17" gradientUnits="userSpaceOnUse"><stop offset="0" stop-color="#d870a9"/><stop offset="0.5" stop-color="#c8007f"/><stop offset="1" stop-color="#a11880"/></linearGradient></defs><rect class="cls-1" x="-0.34" y="0.48" width="100" height="100" rx="15"/><path class="cls-2" d="M81.5,11H17.81c-3.57,0-6.46,2.59-6.46,5.78V66.52c0,3.18,2.89,5.77,6.46,5.77H40.28v5H59v-5H81.5c3.57,0,6.47-2.59,6.47-5.77V16.73C88,13.54,85.07,11,81.5,11ZM17.2,22.19a4.73,4.73,0,0,1,5-4.44h55a4.73,4.73,0,0,1,5,4.44v36.4H17.2Z"/><path class="cls-2" d="M28.95,80H70.37a3.29,3.29,0,0,1,3.29,3.29V86a0,0,0,0,1,0,0h-48a0,0,0,0,1,0,0V83.31A3.29,3.29,0,0,1,28.95,80Z"/><rect class="cls-2" x="27.28" y="22.48" width="44.75" height="6.95"/><rect class="cls-2" x="27.28" y="31.86" width="20.91" height="22.27"/><rect class="cls-2" x="51.11" y="31.86" width="20.91" height="5.46"/><rect class="cls-2" x="51.11" y="48.09" width="20.91" height="5.46"/><rect class="cls-2" x="51.11" y="39.97" width="20.91" height="5.46"/></svg>