<svg id="Layer_1" data-name="Layer 1" xmlns="http://www.w3.org/2000/svg" xmlns:xlink="http://www.w3.org/1999/xlink" viewBox="0 0 100 100"><defs><style>.cls-1{fill:url(#Blue_Green);}.cls-2{fill:#fff;}</style><linearGradient id="Blue_Green" x1="-21.26" y1="-11.08" x2="137.13" y2="124.69" gradientUnits="userSpaceOnUse"><stop offset="0.01" stop-color="#98d0c5"/><stop offset="0.5" stop-color="#00ada4"/><stop offset="1" stop-color="#00947b"/></linearGradient></defs><rect class="cls-1" width="100" height="100" rx="15"/><path class="cls-2" d="M81.84,11.74H18.15c-3.57,0-6.46,2.59-6.46,5.78V67.31c0,3.18,2.89,5.77,6.46,5.77H40.62v5H59.37v-5H81.84c3.57,0,6.47-2.59,6.47-5.77V17.52C88.31,14.33,85.41,11.74,81.84,11.74ZM17.54,23a4.73,4.73,0,0,1,5-4.44h55a4.73,4.73,0,0,1,5,4.44v36.4H17.54Z"/><path class="cls-2" d="M29.29,80.81H70.71A3.29,3.29,0,0,1,74,84.1v2.71a0,0,0,0,1,0,0H26a0,0,0,0,1,0,0V84.1a3.29,3.29,0,0,1,3.29-3.29Z"/><polygon class="cls-2" points="22.05 56.3 42.81 33.84 55.5 48.41 62.01 41.9 77.94 56.3 22.05 56.3"/><circle class="cls-2" cx="68.7" cy="29.38" r="7.2"/></svg>