<svg id="Layer_1" data-name="Layer 1" xmlns="http://www.w3.org/2000/svg" xmlns:xlink="http://www.w3.org/1999/xlink" viewBox="0 0 400 132"><defs><style>.cls-1{fill:#fff;stroke-miterlimit:10;stroke-width:2.14px;stroke:url(#radial-gradient);}.cls-2{fill:#941b80;}.cls-3{fill:#b91917;}.cls-4{fill:#f8b133;}.cls-5{fill:#e7007a;}.cls-6{fill:#009ee2;}</style><radialGradient id="radial-gradient" cx="204" cy="115.5" r="142.72" gradientTransform="translate(-3.98 -20) scale(0.99 1.15)" gradientUnits="userSpaceOnUse"><stop offset="0" stop-color="#1a1a1a"/><stop offset="0.5" stop-color="#333"/><stop offset="1"/></radialGradient></defs><rect class="cls-1" y="94" width="398" height="38"/><rect width="400" height="94"/><path d="M95.31,103.54a3.86,3.86,0,0,1,3.88,3.84v11a3.86,3.86,0,0,1-3.88,3.85H80.47V103.54ZM84.5,118.2H95.1V107.59H84.5Z"/><path d="M117.26,111v5.77H106v1.56h11.31v4H105.74a3.81,3.81,0,0,1-3.77-3.77V111a3.8,3.8,0,0,1,3.77-3.77h7.75A3.79,3.79,0,0,1,117.26,111Zm-4,2.29v-2.08H106v2.08Z"/><path d="M134.94,111.7h-4v-.54H123.6v1.55h7.54a3.8,3.8,0,0,1,3.8,3.78v2a3.8,3.8,0,0,1-3.8,3.77h-7.75a3.81,3.81,0,0,1-3.77-3.77v-.76h4v.55h7.33v-1.56h-7.54a3.81,3.81,0,0,1-3.77-3.77v-2a3.81,3.81,0,0,1,3.77-3.77h7.75a3.79,3.79,0,0,1,3.8,3.77Z"/><path d="M141.54,102.24v4h-4v-4Zm-4,4.94h4v15.08h-4Z"/><path d="M155,128.21h-9.15v-4h9v-1.95h-7.54a3.82,3.82,0,0,1-3.8-3.77V111a3.81,3.81,0,0,1,3.8-3.77H155A3.79,3.79,0,0,1,158.8,111v13.49A3.77,3.77,0,0,1,155,128.21Zm-7.56-9.93h7.36v-7.12h-7.36Z"/><path d="M176.87,111v11.31h-4v-11.1h-7.34v11.1h-4V107.18H173.1A3.79,3.79,0,0,1,176.87,111Z"/><path d="M192.14,107.59V118.2h14.63v4.06H192a3.84,3.84,0,0,1-3.84-3.85v-11a3.83,3.83,0,0,1,3.84-3.84h14.82v4Z"/><path d="M220.86,107.18a3.79,3.79,0,0,1,3.78,3.77v7.54a3.79,3.79,0,0,1-3.78,3.77h-7.74a3.81,3.81,0,0,1-3.77-3.77V111a3.8,3.8,0,0,1,3.77-3.77Zm-7.54,11.1h7.34v-7.12h-7.34Z"/><path d="M249.33,111v11.31h-4v-11.1h-5v11.1h-4v-11.1h-5v11.1h-4V107.18h18.15A3.78,3.78,0,0,1,249.33,111Z"/><path d="M266.65,111v7.54a3.79,3.79,0,0,1-3.77,3.77h-7.54v6h-4V107.18h11.52A3.79,3.79,0,0,1,266.65,111Zm-11.31,7.33h7.33v-7.12h-7.33Z"/><path d="M283.86,111v11.31H272.34a3.79,3.79,0,0,1-3.77-3.77v-5.78h11.31v-1.55H268.57v-4h11.52A3.79,3.79,0,0,1,283.86,111Zm-4,5.25h-7.33v2.08h7.33Z"/><path d="M301.72,111v11.31h-4v-11.1h-7.34v11.1h-4V107.18H298A3.79,3.79,0,0,1,301.72,111Z"/><path d="M315.76,127.67h-9.15v-4h8.95v-1.4H308a3.82,3.82,0,0,1-3.8-3.77V107.23h4v11h7.36v-11h4V123.9A3.77,3.77,0,0,1,315.76,127.67Z"/><path class="cls-2" d="M303.3,10.58H283.06V86.27H303.3c22.07,0,42.58,1.58,42.58-36.27S325.37,10.58,303.3,10.58Zm4.21,55.19H303.3V31.08h4.21c13.92,0,17.86,3.81,17.86,17.35S321.43,65.77,307.51,65.77Z"/><path class="cls-3" d="M98,41,115.65,9l20,14L105,78.12c-4.6,8.29-15.62,8.3-20.24,0L54.12,23l20-14L91.84,41A3.44,3.44,0,0,0,98,41Z"/><path class="cls-4" d="M208.38,42.57l17.66-32,20,14L215.42,79.7c-4.6,8.29-15.62,8.3-20.23,0L164.52,24.6l20-14,17.75,32A3.44,3.44,0,0,0,208.38,42.57Z"/><path class="cls-5" d="M162.94,74.47c0,5.31-4.37,10.85-13.42,10.85A13,13,0,0,1,136.1,72.66c0-.91,0-18.07.19-27.16.11-5.31,4.26-7.84,13.32-7.84s13.33,2.53,13.33,7.84ZM149.57,15.31c-6.38,0-11.54,4.52-11.54,10s5.16,10,11.54,10,11.63-4.52,11.63-10S156,15.31,149.57,15.31Z"/><path class="cls-6" d="M274.91,74.47c0,5.31-4.37,10.85-13.42,10.85a13,13,0,0,1-13.42-12.66c0-.91,0-18.07.19-27.16.11-5.31,4.26-7.84,13.32-7.84s13.33,2.53,13.33,7.84ZM261.54,15.31c-6.38,0-11.54,4.52-11.54,10s5.16,10,11.54,10,11.63-4.52,11.63-10S267.93,15.31,261.54,15.31Z"/></svg>