<svg xmlns="http://www.w3.org/2000/svg" viewBox="0 0 99.69 99.4"><defs><style>.cls-1{fill:#f5a804;}.cls-2{fill:#ffc904;}.cls-3{font-size:19.65px;font-family:Arial-Black, Arial Black;font-weight:800;}.cls-4{letter-spacing:-0.02em;}.cls-5{letter-spacing:-0.03em;}</style></defs><g id="Wider"><g id="Group_1073" data-name="Group 1073"><g id="Group_1072" data-name="Group 1072"><path id="Path_2790" data-name="Path 2790" class="cls-1" d="M10,20.28a.2.2,0,0,0,0-.08L10,19.89Z"/><path id="Path_2791" data-name="Path 2791" class="cls-1" d="M22,9.12l.1,0C22.1,9,22.08,9,22,9.12Z"/><path id="Path_2792" data-name="Path 2792" class="cls-1" d="M2.19,56.52a1.43,1.43,0,0,1-.09-.27A.44.44,0,0,0,2.19,56.52Z"/><path id="Path_2793" data-name="Path 2793" class="cls-1" d="M73.57,92.42l-.07,0,.19,0Z"/><path id="Path_2794" data-name="Path 2794" class="cls-1" d="M73.21,92.75c-.07,0,.18-.2.28-.27a2.81,2.81,0,0,0-1.1.46C72.46,93,73,92.79,73.21,92.75Z"/><path id="Path_2795" data-name="Path 2795" class="cls-1" d="M73.34,92.71h-.12A.25.25,0,0,0,73.34,92.71Z"/><path id="Path_2796" data-name="Path 2796" class="cls-1" d="M98.79,57.07l.2.12A.27.27,0,0,0,98.79,57.07Z"/><path id="Path_2797" data-name="Path 2797" class="cls-1" d="M35.6,2.5a.29.29,0,0,0,.13.14v0Z"/><path id="Path_2798" data-name="Path 2798" class="cls-1" d="M94.23,34l-.25-.2a1,1,0,0,0,.17.27A.27.27,0,0,0,94.23,34Z"/><path id="Path_2799" data-name="Path 2799" class="cls-1" d="M54,1.27l.85,0L56,1.35s.07,0,.07-.07A14.15,14.15,0,0,0,53.65,1l-.09.28Z"/><path id="Path_2800" data-name="Path 2800" class="cls-1" d="M90.56,77.85c.27-.36.55-.76.82-1.16s.51-.83.77-1.23a16.06,16.06,0,0,1,1.46-2.1,4.11,4.11,0,0,0,.87-1.88c.16-.65.22-1.21.31-1.46a4.18,4.18,0,0,1,.82-1.71c.22-.29.4-.44.39-.32.48-1.48.43-3,1.3-5a2.12,2.12,0,0,0,.52-1.16c.14-.59.24-1.32.33-2,.17-1.41.25-2.73.6-2.71l0,0a11.88,11.88,0,0,0,.44-2,18,18,0,0,0,.1-2.08c0-.7,0-1.41,0-2.13a18.94,18.94,0,0,1,.15-2.21.54.54,0,0,1,.1.16l-.35-1c-.21-.57-.55-1.32-.86-2s-.69-1.46-1-2l-.38-.9-1.06,1c-.52.49-1.08.94-1.08.94a.91.91,0,0,0,0,.21c-.11-1.17-.26-2.34-.46-3.51,0-.39,0-.83,0-1.28,0-.81,0-1.68,0-2.45s0-1.45,0-1.84c.25,1,.26,1.14.28.95s0-.67,0-.89l-.17-.08c-.27-1.22,0-1.33-.07-1.95l-.07.06.08,0c0,.08-.09.05-.14,0s-.13,0-.24-.32l.07,0a14.69,14.69,0,0,1-.68-1.7L93.6,32a3,3,0,0,1-.67-1.25q-.17-.46-.33-1c-.1-.37-.26-.73-.37-1.14s-.25-.8-.37-1.17l-.38-1.07c-.12-.34-.24-.65-.34-.9a6.54,6.54,0,0,0-.3-.59c-.38-1.28-1.64-2.36-2.48-3.74-1.52-2.08-.46-1.26-1.12-2.4-.93-1.35,0,.45-.47,0l-.5-.83c-.26-.43-.53-.85-.53-.85.81.81.52.23.44,0-.56-.63-1.21-1.53-1.87-2.21a8.49,8.49,0,0,0-.91-.89,1.25,1.25,0,0,0-.73-.32l-.89-1-.49-.64a5,5,0,0,0-.8-.85c.19.29.66.77.59.87-.58-.76-.39-.23-.13.05a10.28,10.28,0,0,1-1.35-1.1c-.58-.49-1.2-1.15-1.88-1.66-1.29-1.12-2.59-2-2.87-1.83l.05-.11c-.51.23-.27.87-1.24.61l-.48-.48-1-.27c-.52-.43-.18-.39-.15-.44a22.72,22.72,0,0,1-2.52-1.12c-.92-.41-1.84-.9-2.75-1.22,0,0,.4.46.73.94l.72.93c-1.34-.9-4-2.31-4.4-2l-.4-.34L63,3.56c-3-1.54-2.3-.18-3.51-.66l-.77-.38L58,2.17s.41.05.81.13l.83.16-1-.34-.83-.27c-.54-.17-1-.36-1.64-.57h0l.16.07h-.23a4.55,4.55,0,0,1-2.3.18c-.82-.05-1.56,0-2.44,0a13.26,13.26,0,0,1-1.41,0c-.26,0-.53,0-.82-.07s-.6,0-.94-.09l-.63.5-1-.07h-1l0-.36c1-.12,2.37-.24,3.84-.34L51.59,1,53.65,1l.08-.16c-.75,0-1.55,0-2.29,0S50,.92,49.56.92s-1.5-.31-1-.58L47.8.67c-1.26,0-2.19.21-3,.29s-1.41.19-2.06.27-1.3.15-2.11.29l-1.4.16c-.51.08-1.07.2-1.72.31l.49.06c-.49.19-1,.38-1.38.5a1.39,1.39,0,0,1-.92.09c-3,.9-6.12,2-8.18,2.58l-.1.29-.1.3c-.59.31-1.81.24-1.78.92l-.19.13L25,7.18l-.55.45c-.34.22-.67.45-1,.7A3.85,3.85,0,0,1,22.34,9h0l-.2.08h0c-.91.52-.84.6-.82.69s0,.2-1,.82c-.8.23-.32.94-1.25,1.6l-1.29.28a6.59,6.59,0,0,0-1.76,1.65c-.22.3-.44.63-.75,1s-.7.83-1.19,1.4c-1.11.93-2,1.14-1.71.1-.23.69-.25.87-.34,1.07s-.23.42-.67,1.19c-.36.07-.28-.12-.21-.54-.6.53-.71.76-.75,1a1.68,1.68,0,0,1-.39.88c.16.53.51,1.25.31,1.57l.38-.29a13.23,13.23,0,0,1-.87,1.72,14.34,14.34,0,0,1-1.17,1.71l-.16-.16-.32.69-.31.7-.29,0-.46,1-.3.68-.14.31.19-.24c-.1.24-.29.76-.53,1.31L6,30a4.51,4.51,0,0,1-.38.73l-.13-.09C4,33,3.9,35.35,3.26,38.43L3,38c-.55,1,.39.39,0,1.61h-.4c.32,1.21-.4,1.42-.7,2.18l.57-.29-.31,1.44c-.21.8-.4,1-.57,1s-.34-.24-.45-.36l.15.58.16.57L1,44.87c.47.87-.18.81.06,2.28-.18.11-.27-.27-.36.22l.18,1.11.34,1.18L1.05,49l-.11-.5,0-.22.67.18a3.52,3.52,0,0,1,.2,1.67,3.17,3.17,0,0,0,0,1.37l-.13-.35c-.06-.18-.11-.36-.11-.36a7.1,7.1,0,0,1-.1,2.79c.1-.31.26-.78.39-.1.09.5-.2.29-.22.78.23,0,.46.36.58.79a5,5,0,0,1,.2,1.59.27.27,0,0,1-.18-.08,1.38,1.38,0,0,1,.22.89l-.52-.21.61.89c0,.65.57,1.47.19,1.46l-.17-.33.14.74c.09.44.2,1,.35,1.62l.4,1.61c.12.44.22.71.22.71l-.36.18c.34.15.5.79.63,1.35s.33,1,.62.84a5.9,5.9,0,0,0,.66,2c.32.66.5,1.16,0,1.07a11,11,0,0,0,.47,1,9.88,9.88,0,0,0,.53.91c.36.57.69,1.12,1.1,1.66S8.07,74,8.5,74.66s.83,1.35,1.3,2.2a8.44,8.44,0,0,0,1.66,3l.67.87.73.84.7.82.68.74a48.6,48.6,0,0,0,5,4.15c.84.58,1.65,1.19,2.56,1.75.45.29.91.59,1.41.89l1.54.9a8.09,8.09,0,0,0,2,1.53,21.86,21.86,0,0,0,2.54,1.21,53.89,53.89,0,0,1,5.05,2.05l1-.05a5.81,5.81,0,0,0,1.65.73,15.3,15.3,0,0,0,2,.55A37.75,37.75,0,0,1,43.36,98c.43,0,.87,0,1.31,0a.46.46,0,0,1-.37-.36c.83.3,2.57.24,2.41.68l-.23,0c-.09.21.57.25,1.37.23a6,6,0,0,1,2.2.16l-.52-.51.81.07.81,0-.43.1c3.52-.53,6-.7,8.5-1a21,21,0,0,0,7.89-2.22c-.32.38,0,.22.36,0s.9-.47,1-.21a3.34,3.34,0,0,0,2.23-.72c.61-.44,1.14-.94,1.7-1.35a.15.15,0,0,1,0-.13l1.07-.5.73-.35.33-.18c-.87,1.34,1.19-1.36.36-.18a33.92,33.92,0,0,0,8.56-5.75A60.93,60.93,0,0,0,91,77.68Z"/><path id="Path_2801" data-name="Path 2801" class="cls-1" d="M96,68a.61.61,0,0,1-.05.12A.26.26,0,0,0,96,68Z"/><path id="Path_2802" data-name="Path 2802" class="cls-1" d="M48.48.32l.2-.09A.72.72,0,0,0,48.48.32Z"/><path id="Path_2803" data-name="Path 2803" class="cls-1" d="M66.7,4.32l.12.06L66.48,4Z"/><path id="Path_2804" data-name="Path 2804" class="cls-1" d="M86.22,17a5.87,5.87,0,0,0,.72.69C86.26,16.79,86.16,16.81,86.22,17Z"/><path id="Path_2805" data-name="Path 2805" class="cls-1" d="M94.52,36l.22.09C94.6,35.78,94.55,35.81,94.52,36Z"/></g></g><path id="Path_2806" data-name="Path 2806" class="cls-2" d="M87.34,28.56c-.06-.13-.14-.26-.21-.38.31-.12-.28-1.34-.53-2.09l1.09,1.73c.27.43.52.89.7,1.21l.31.56-.86-1c.19.11.12-.16-.06-.54A11.18,11.18,0,0,0,87,26.84,17.39,17.39,0,0,0,88,29.67Zm-.21-.38-.24-.38-.21-.35-.07,0a8.84,8.84,0,0,1,.47.81h0Zm-.21.31c.47.61.16.11-.18-.4s-.62-1-.13-.67a2,2,0,0,1-.35-.69c-.59-.42-.07.58.65,1.78Zm4.15,7.41a1.53,1.53,0,0,0,0-.74C91,35.13,91,35.51,91.07,35.9Zm-.34,0c-.25-.1-.34,0,.06,1.7-.12-.81-.26-1.61.07-1.33l.22.81c.16.14.14-.32,0-.84l-.06-.29c-.06.13-.21,0-.34,0Zm-2.29-2.8.32.52s-.28-1-.64-1.93l-.73-1.91C87.11,30.3,88.2,31.5,88.44,33.06Zm-1,40.48-.17.38.32-.47Zm-.17.38a5.22,5.22,0,0,1-1,1.17,8,8,0,0,0-1.08,1.46l.31-.3.64-.71.65-.71c.17-.19.28-.33.28-.33l.25-.58Zm-.15-.22.31-.16c.94-2.2,2.06-2.77,3.25-6C89.43,69.73,88.16,72,87.1,73.7Zm1.23-14.24.55.35a21.63,21.63,0,0,1,.6-2.27c.1-.32.2-.64.29-1A12,12,0,0,0,90,55.06L90,55h0c-.71.76-.74,3-1.63,4.47ZM84.46,76.35c-.23.33-.5.69-.79,1.08s-.66.78-1,1.22c.07-.39,1-1.46.24-.92a5.16,5.16,0,0,1-.2.67l-.5.43a6.08,6.08,0,0,0,.5-.43,21.42,21.42,0,0,1-3.77,4.19c-.86.8-1.8,1.54-2.73,2.26l.49-.17-.48.26s-.2.26-.41.51l-.42.52c-.38.15-.79.34-1.24.55,0,.1-.2.29-.54.54a12.18,12.18,0,0,1-1.68,1.06c-.68.38-1.45.8-2.21,1.15l-1.1.55-1,.46c-.79.2-1,.16-.55-.23a5.34,5.34,0,0,0,2.13-.92c.24-.15.49-.31.77-.47l-.52.26a51.92,51.92,0,0,1-7.2,3c2.18-.63,4.57-1.66,3.5-.67-.67,0-2.28.46-4.15.83a35.48,35.48,0,0,1-3.69.61c-.66.13-1.33.25-2,.36l-.05.13a15,15,0,0,0,1.5-.16,10.76,10.76,0,0,1-1.5.17h-.09l-.25,0h-1.1a5.41,5.41,0,0,0-.85.09c-2.22.21-4.55.28-7.15.28a31.78,31.78,0,0,1-7.56-1.25,54.41,54.41,0,0,1-8.08-3.08,38.52,38.52,0,0,1-7.58-5.12l.17.18a34,34,0,0,1-9.53-10.76l-.21-.38c-1.17-1.71-2.25-3.43-3.27-5.12a7.67,7.67,0,0,1-.62-1.21,15.31,15.31,0,0,1-.61-1.59c-.17-.59-.35-1.21-.48-1.85a18.59,18.59,0,0,1-.26-1.93,24.48,24.48,0,0,1-2.26-11c0-1.1.08-2.21.17-3.31a25.82,25.82,0,0,1,.48-3.29,41,41,0,0,1,1.64-6.08,12.27,12.27,0,0,1,.78-1.83A11.32,11.32,0,0,1,10,34.49c.29-.41.56-.77.81-1.07a9.12,9.12,0,0,1,.73-.76l.22-.51a39.34,39.34,0,0,1,5.47-9.44,37.72,37.72,0,0,1,8.82-8A41.45,41.45,0,0,1,40.19,8.56a39.41,39.41,0,0,1,16.15-.25c1,.11,2.16.31,3.43.55l2.55.41.72.37c.58.16,1.16.32,1.73.5,3,.93,6,2.18,8.11,3a35.7,35.7,0,0,1,4.31,3.65,26.64,26.64,0,0,1,2.69,2.4c2.72,2.83,3.59,4.9,3.91,6.22a4.19,4.19,0,0,1-.43,2.86,31.49,31.49,0,0,0-4.28-4A53.08,53.08,0,0,0,74,21l-.32-.18-.52-.22-.32-.23a105,105,0,0,0-11.59-5.63,14.63,14.63,0,0,0-2.42-.81,24,24,0,0,0-2.9-.48,39.55,39.55,0,0,0-6.06-.14c-1.62.17-3.31.14-4.94.33a15.9,15.9,0,0,0-2.37.42,8.66,8.66,0,0,0-2.09.91,23.7,23.7,0,0,0-9.14,2.29A27.79,27.79,0,0,0,28,19.11l0,.09a21.38,21.38,0,0,1-2.42,1.58,28.4,28.4,0,0,0-3.68,3.51c-.49.37-.1-.21-.91.48a10.43,10.43,0,0,1-2,2.81c-.27.41-.54.82-.79,1.24a13.36,13.36,0,0,1-.8,1.86L17,31a43.13,43.13,0,0,0-3.47,7.94A37,37,0,0,0,12,55.63a45.34,45.34,0,0,0,2.38,9,31.9,31.9,0,0,0,2.18,4.57c.45.73.89,1.49,1.41,2.19s1,1.42,1.62,2.09c.22.25.76,1,1.38,1.87.33.42.68.89,1.05,1.31a14.93,14.93,0,0,0,1.11,1.14c.53.42,1.11.76,1.66,1.14A35.47,35.47,0,0,0,31,83.43c2.17,1.26,4.29,2.22,5.91,3a26.71,26.71,0,0,0,5.86,1.88c1.93.39,3.82.61,5.68.82a32.27,32.27,0,0,0,10-.76c3.53-.74,6.78-2,9.16-2.7A8,8,0,0,0,69.22,85l1-.58c.33-.19.63-.41.91-.57.57-.23,1.16-.46,1.72-.73,1.09-.76,1.41-1.71,2.42-2.51a42,42,0,0,0,8.61-9.71c2.28-3.51,3.82-6.83,5.1-8.62-.06.36-.25,1.21-.33,1.85s-.1,1.06.33.58.8-1,1.33-1.54a22.12,22.12,0,0,0,.92-2c.25-.58.46-1.22.68-1.84l0-.23.11-.25s0,.17-.09.41l.16-.46c.25-.81.53-1.56.73-2.2a5.75,5.75,0,0,1,.61-1.42s.09.24.15.56a4.75,4.75,0,0,1,.18,1.5,1.09,1.09,0,0,0,0,.26,9.1,9.1,0,0,1-.22,2.44A25.27,25.27,0,0,1,92,63.79v.09A11.93,11.93,0,0,1,89.64,68a.09.09,0,0,1,0,.08l-.31.82-.14.32,0,.15-.2.19-.06.15a.2.2,0,0,0-.08,0,.15.15,0,0,1-.12,0,1.68,1.68,0,0,0-.41.54s0,.24-.12.47l-.13.46-.84,1.06c-.43.52-.89,1-.89,1,.4-.58,1.28-2,2-3.27.1-.23.25-.44.36-.64a.69.69,0,0,0,0-.25c-.56.78-1.17,1.58-1.82,2.43h0c-.8,1-1.67,2.1-2.67,3.35a19.72,19.72,0,0,0-1.37,2.35c.06.06.08.18,0,.43.26-.3.66-.75,1-1.23s.67-.8.89-1.12l.4-.52a4.3,4.3,0,0,1-.78,1.59Zm4.81-7.94-.24.31,0,.06a3,3,0,0,1,.21-.37ZM71.63,87.77Zm2.73-8.57c-1.54,1.24.17.44-.74,1.43A9.78,9.78,0,0,1,76.06,79c-.07-.14-1.92.92-.81-.08C74.51,79.48,73.9,79.94,74.36,79.2Zm.89-.33.75-.65c-.34.28-.58.49-.76.65Zm-3.91,3.28c-.22.12-.46.24-.67.37a3.66,3.66,0,0,0-1,.71c.84-.54,1.8-.69,2.32-1.45Zm-.27-1.07-.18.18-.2.19.21-.08.45-.17L72,81Zm-5.89,3.43a4.49,4.49,0,0,0,1.39-.38c-.36.11-.65.18-.76.09l.48-.24,1-.56c.38-.2.75-.44,1-.6l.46-.27-1.41.66-1.44.6c-.79.52-1,.7-.79.72Zm4.26-1.38.14-.11.27-.24.4-.36c0-.06-.35.14-.83.42s-1.15.6-1.76.89a5.75,5.75,0,0,1,1.78-.6Zm-2.87,1a10,10,0,0,0,1.08-.41Zm-3.31.59-.46.17,0,.47c.9-.44.43-.54.43-.63Zm-5.59,1.17.94-.15c.32-.06.67-.14,1-.19-1.38.28-.45-.15-.44-.34a18.77,18.77,0,0,0-3.24.76,6,6,0,0,0,1.74-.06Zm-2.14-.5.95-.15a9.09,9.09,0,0,0,1-.21l.43-.09a1.45,1.45,0,0,0-1.17,0c-.46.12-1,.34-1.57.45l.43-.06Zm-4.12.78L50.64,86c-.24.05-.07.17-.55.28a9.06,9.06,0,0,0,2.08.08s-.39-.07-.77-.17Z"/><text class="cls-3" transform="matrix(0.92, 0.41, -0.41, 0.91, 12.03, 41.88)">Sti<tspan class="cls-4" x="29.45" y="0">c</tspan><tspan class="cls-5" x="42.22" y="0">k</tspan><tspan x="54.65" y="0">er</tspan></text></g></svg>